<?xml version="1.0" encoding="utf-8"?>
<!-- Generator: Adobe Illustrator 25.3.1, SVG Export Plug-In . SVG Version: 6.00 Build 0)  -->
<svg version="1.1" id="Layer_1" xmlns="http://www.w3.org/2000/svg" xmlns:xlink="http://www.w3.org/1999/xlink" x="0px" y="0px"
	 viewBox="0 0 136.3 114.2" style="enable-background:new 0 0 136.3 114.2;" xml:space="preserve">
<style type="text/css">
	.st0{fill:#BE1824;}
</style>
<g>
	<path d="M14.1,106.3c0,1.8-0.4,3.3-1.4,4.6c-0.6,0.9-1.5,1.5-2.7,1.8c-0.6,0.2-1.3,0.3-2.2,0.3c-1.5,0-2.8-0.4-3.8-1.1
		c-0.8-0.6-1.5-1.5-2-2.5s-0.8-2.3-0.9-3.7l3.7-0.3c0.2,1.5,0.6,2.6,1.2,3.3c0.5,0.5,1,0.7,1.6,0.7c0.9,0,1.5-0.4,2-1.3
		c0.3-0.4,0.4-1,0.4-1.7c0-1.1-0.5-2.1-1.5-3.2c-0.8-0.7-1.9-1.8-3.5-3.3c-1.3-1.2-2.2-2.4-2.7-3.4c-0.6-1.1-0.9-2.3-0.9-3.6
		c0-2.3,0.8-4.1,2.4-5.3c1-0.7,2.2-1.1,3.6-1.1s2.6,0.3,3.6,0.9c0.8,0.5,1.4,1.2,1.9,2c0.5,0.9,0.8,1.9,0.9,3l-3.7,0.7
		C10,92,9.7,91.2,9.2,90.6C8.8,90.2,8.3,90,7.7,90c-0.7,0-1.3,0.3-1.6,0.9c-0.3,0.5-0.5,1.1-0.5,1.9c0,1.2,0.5,2.4,1.5,3.6
		c0.4,0.5,1,1,1.7,1.6c0.9,0.8,1.5,1.3,1.8,1.6c1,1,1.7,1.9,2.2,2.8c0.2,0.4,0.4,0.8,0.6,1.2C13.8,104.8,14,105.6,14.1,106.3z"/>
	<path d="M22.7,106.8l-0.9,5.9h-4l4.4-25.8h5.3l4.3,25.8h-4.1l-0.9-5.9C26.8,106.8,22.7,106.8,22.7,106.8z M24.8,92.9L23.3,103h2.9
		L24.8,92.9z"/>
	<path d="M42.7,86.9c2.2,0,3.8,0.6,4.8,1.8c0.9,1,1.3,2.5,1.3,4.4v3.7c0,1.8-0.7,3.4-2.1,4.6l2.9,11.3h-4.2L43,103
		c-0.1,0-0.2,0-0.4,0h-2.2v9.7h-3.9V86.9H42.7z M45,93.2c0-1.5-0.7-2.2-2.2-2.2h-2.3v8.3h2.3c0.6,0,1.1-0.2,1.6-0.7
		c0.4-0.4,0.6-1,0.6-1.6C45,97,45,93.2,45,93.2z"/>
	<path d="M59.1,106.8l-0.9,5.9h-4l4.4-25.8h5.3l4.3,25.8h-4.1l-0.9-5.9C63.2,106.8,59.1,106.8,59.1,106.8z M61.2,92.9L59.7,103h2.9
		L61.2,92.9z"/>
	<path d="M78.5,113.1c-1.7,0-3.2-0.6-4.4-1.8c-1.2-1.2-1.8-2.7-1.8-4.4V92.8c0-1.7,0.6-3.2,1.8-4.4c1.2-1.2,2.7-1.8,4.4-1.8
		c1.7,0,3.2,0.6,4.4,1.8c1.2,1.2,1.8,2.7,1.8,4.4v2.9h-4v-3c0-0.6-0.2-1.1-0.7-1.6s-1-0.7-1.6-0.7s-1.1,0.2-1.6,0.7
		c-0.4,0.4-0.6,1-0.6,1.6v14.1c0,0.6,0.2,1.1,0.6,1.6c0.4,0.4,1,0.6,1.6,0.6s1.1-0.2,1.6-0.6c0.4-0.4,0.7-1,0.7-1.6v-3.6h4v3.6
		c0,1.7-0.6,3.2-1.8,4.4C81.6,112.5,80.2,113.1,78.5,113.1z"/>
	<path d="M89.3,112.7V86.9h11.1v3.9h-7.2v7h5.2v3.9h-5.2v7h7.2v3.9L89.3,112.7L89.3,112.7z"/>
	<path d="M108.8,86.9l5.2,17.3V86.9h3.9v25.8h-4.2l-5.4-16.5v16.5h-3.9V86.9H108.8z"/>
	<path d="M135.4,106.3c0,1.8-0.4,3.3-1.4,4.6c-0.6,0.9-1.5,1.5-2.7,1.8c-0.6,0.2-1.3,0.3-2.2,0.3c-1.5,0-2.8-0.4-3.8-1.1
		c-0.8-0.6-1.5-1.5-2-2.5c-0.5-1.1-0.8-2.3-0.9-3.7l3.7-0.3c0.2,1.5,0.6,2.6,1.2,3.3c0.5,0.5,1,0.7,1.6,0.7c0.9,0,1.5-0.4,2-1.3
		c0.3-0.4,0.4-1,0.4-1.7c0-1.1-0.5-2.1-1.5-3.2c-0.8-0.7-1.9-1.8-3.5-3.3c-1.3-1.2-2.2-2.4-2.7-3.4c-0.6-1.1-0.9-2.3-0.9-3.6
		c0-2.3,0.8-4.1,2.4-5.3c1-0.7,2.2-1.1,3.6-1.1c1.4,0,2.6,0.3,3.6,0.9c0.8,0.5,1.4,1.2,1.9,2c0.5,0.9,0.8,1.9,0.9,3l-3.7,0.7
		c-0.1-1.1-0.4-1.9-0.9-2.5c-0.4-0.4-0.9-0.6-1.5-0.6c-0.7,0-1.3,0.3-1.6,0.9c-0.3,0.5-0.5,1.1-0.5,1.9c0,1.2,0.5,2.4,1.5,3.6
		c0.4,0.5,1,1,1.7,1.6c0.9,0.8,1.5,1.3,1.8,1.6c1,1,1.7,1.9,2.2,2.8c0.2,0.4,0.4,0.8,0.6,1.2C135.2,104.8,135.4,105.6,135.4,106.3z"
		/>
</g>
<g>
	<g>
		<path d="M128,21.7c-4-14.9-35.8-26-69-17.2C25.9,13.4,3.9,39,7.9,53.9S43.7,80,76.8,71.1C110,62.2,132,36.7,128,21.7L128,21.7z"/>
	</g>
	<path class="st0" d="M19.8,56c-3.4-6.4-1.1-15.9,7.3-24.7c9.4-10.4,26.6-19.1,41.2-21.4c2.9-0.4,5.7-0.8,8.1-0.7
		C69.8,11.4,64,13.8,57.2,18c-14.1,8.4-24.4,19.5-24.8,29.5C30.9,57.2,41.1,65.8,54,66C37.7,69.8,25,64.1,19.8,56L19.8,56z"/>
	<polygon class="st0" points="50,31.8 70.4,29.3 83.6,13.6 85.2,26.8 105.3,24.8 85.6,35.6 87.2,49.4 72.2,42.7 50,53.5 62.6,38.2 	
		"/>
</g>
</svg>
